<svg xmlns="http://www.w3.org/2000/svg" width="104" height="67.292" viewBox="0 0 104 67.292"><defs><style>.a,.c,.d{fill:#fff;}.b{fill:none;}.c{font-size:12px;}.c,.d{font-family:SegoeUI, Segoe UI;}.d{font-size:8px;}</style></defs><g transform="translate(-21 -16.631)"><g transform="translate(-397.438 -233.164)"><path class="a" d="M40.365,34.256a4.031,4.031,0,0,0,4.016-4.037l.02-20.183A4.048,4.048,0,0,0,40.365,6H8.073a4.048,4.048,0,0,0-4.037,4.037V30.219a4.048,4.048,0,0,0,4.037,4.037H0v4.037H48.438V34.256ZM8.073,10.037H40.365V30.219H8.073Z" transform="translate(450 243.795)"/><g transform="translate(465.823 257.611)"><g transform="translate(0 0)"><rect class="b" width="16.792" height="16.792" transform="translate(0 0)"/></g><g transform="translate(1.08 1.445)"><rect class="a" width="2.14" height="6.048" transform="translate(8.332 8.957) rotate(-45)"/><path class="a" d="M13.083,7.881a2.5,2.5,0,0,0,2.5-2.5,2.464,2.464,0,0,0-.292-1.141L13.361,6.17,12.3,5.107l1.926-1.926a2.464,2.464,0,0,0-1.141-.292,2.5,2.5,0,0,0-2.5,2.5,2.432,2.432,0,0,0,.15.827L9.417,7.532,8.148,6.262l.506-.506L7.649,4.75,9.161,3.238a2.139,2.139,0,0,0-3.024,0L3.612,5.763,4.618,6.769H2.606L2.1,7.275,4.625,9.8l.506-.506V7.275L6.137,8.281l.506-.506L7.913,9.044,2.628,14.328,4.14,15.84l8.116-8.109A2.432,2.432,0,0,0,13.083,7.881Z" transform="translate(-2.1 -2.613)"/></g></g></g><text class="c" transform="translate(39 66)"><tspan x="0" y="0">Peter&apos;s Tech </tspan></text><text class="d" transform="translate(21 81.923)"><tspan x="0" y="0">One stop for computer repair</tspan></text></g></svg>