<svg xmlns="http://www.w3.org/2000/svg" width="593" height="500" viewBox="0 0 593 500"><defs><style>.a{fill:#f2f2f2;font-size:14px;font-family:SegoeUI-Bold, Segoe UI;font-weight:700;}.b,.c,.g{fill:none;}.b{stroke:#4bd36a;stroke-width:3px;stroke-dasharray:52 56;}.c{stroke:#707070;}.d{fill:#fff;}.e{fill:#4bd36a;}.f,.h{stroke:none;}.h{fill:#707070;}</style></defs><g transform="translate(-320 -2230)"><text class="a" transform="translate(820 2394)"><tspan x="0" y="0">Mobile Repair</tspan></text><text class="a" transform="translate(807 2605)"><tspan x="0" y="0">CCTV Repair</tspan></text><text class="a" transform="translate(320 2596)"><tspan x="0" y="0">Electric Items</tspan><tspan x="0" y="19" xml:space="preserve">      Repair</tspan></text><text class="a" transform="translate(370 2385)"><tspan x="0" y="0">Printers</tspan></text><g class="b" transform="translate(409 2269)"><circle class="f" cx="211.5" cy="211.5" r="211.5"/><circle class="g" cx="211.5" cy="211.5" r="210"/></g><text class="a" transform="translate(572 2245)"><tspan x="0" y="0">Laptop Repair</tspan></text><text class="a" transform="translate(549 2726)"><tspan x="0" y="0">Harware Installation</tspan></text><line class="c" y2="373" transform="translate(621.5 2292.5)"/><line class="c" x2="330" y2="189" transform="translate(448.5 2393.5)"/><line class="c" y1="184" x2="346" transform="translate(448.5 2399.5)"/><g class="d" transform="translate(5124 2145.796)"><path class="f" d="M -4502.1396484375 361.9376220703125 L -4507.31494140625 353.9688110351562 L -4498.099609375 353.9688110351562 L -4502.1396484375 361.9376220703125 Z M -4489.86865234375 352.9688110351562 L -4496.4716796875 352.9688110351562 L -4493.39208984375 346.8958129882812 L -4489.86865234375 352.9688110351562 Z M -4509.15673828125 352.9688110351562 L -4517.13232421875 352.9688110351562 L -4513.3701171875 346.4823303222656 L -4509.15673828125 352.9688110351562 Z M -4493.45068359375 344.8005065917969 L -4497.34765625 338.0812072753906 L -4489.8525390625 337.7031555175781 L -4493.45068359375 344.8005065917969 Z M -4513.41796875 344.572021484375 L -4516.9892578125 339.0718994140625 L -4510.0244140625 338.7205810546875 L -4513.41796875 344.572021484375 Z M -4508.2353515625 337.6290893554688 L -4503.50048828125 329.4658508300781 L -4499.03515625 337.1650390625 L -4508.2353515625 337.6290893554688 Z"/><path class="h" d="M -4502.193359375 360.9373168945312 L -4498.91357421875 354.4688110351562 L -4506.39404296875 354.4688110351562 L -4502.193359375 360.9373168945312 M -4490.73681640625 352.4688110351562 L -4493.3623046875 347.943115234375 L -4495.6572265625 352.4688110351562 L -4490.73681640625 352.4688110351562 M -4510.07763671875 352.4688110351562 L -4513.345703125 347.4373168945312 L -4516.26416015625 352.4688110351562 L -4510.07763671875 352.4688110351562 M -4493.48046875 343.7529907226562 L -4490.68798828125 338.2459411621094 L -4496.50390625 338.5392761230469 L -4493.48046875 343.7529907226562 M -4513.44189453125 343.6168518066406 L -4510.9189453125 339.2663269042969 L -4516.09716796875 339.5275268554688 L -4513.44189453125 343.6168518066406 M -4507.3408203125 337.0833129882812 L -4499.87890625 336.7069396972656 L -4503.50048828125 330.4624328613281 L -4507.3408203125 337.0833129882812 M -4502.08642578125 362.9377136230469 L -4502.08740234375 362.936279296875 L -4508.23583984375 353.4688110351562 L -4497.28564453125 353.4688110351562 L -4502.08642578125 362.9377136230469 Z M -4489.00048828125 353.4688110351562 L -4497.28564453125 353.4688110351562 L -4493.42138671875 345.8485107421875 L -4489.00048828125 353.4688110351562 Z M -4508.23583984375 353.4688110351562 L -4518.00048828125 353.4688110351562 L -4513.39404296875 345.52734375 L -4508.23583984375 353.4688110351562 Z M -4493.42138671875 345.8478088378906 L -4493.42236328125 345.8462219238281 L -4498.19140625 337.6231079101562 L -4489.0166015625 337.1603698730469 L -4493.42138671875 345.8478088378906 Z M -4513.39404296875 345.5269775390625 L -4513.39501953125 345.5256042480469 L -4517.88134765625 338.6162414550781 L -4509.1298828125 338.1748352050781 L -4513.39404296875 345.5269775390625 Z M -4509.1298828125 338.1748352050781 L -4509.12890625 338.1732482910156 L -4503.50048828125 328.4692687988281 L -4498.19140625 337.6231079101562 L -4509.1298828125 338.1748352050781 Z"/></g><ellipse class="e" cx="9" cy="8.5" rx="9" ry="8.5" transform="translate(612 2483)"/></g></svg>